<svg width="132" height="29" viewBox="0 0 132 29" fill="none" xmlns="http://www.w3.org/2000/svg">
    <path d="M5.39733 28H12.608V8.65067H17.6V2.99733H0.405333V8.65067H5.39733V28ZM25.3372 28.448C30.8412 28.448 33.5932 26.2578 33.5932 21.8773C33.5932 20.3698 33.2163 19.1111 32.4625 18.1013C31.7087 17.0916 30.4998 16.3093 28.8358 15.7547C28.5372 15.6693 28.1816 15.5769 27.7692 15.4773C27.3567 15.3636 27.0367 15.2782 26.8092 15.2213C26.5816 15.1502 26.3469 15.0649 26.1052 14.9653C25.8776 14.8516 25.7141 14.7236 25.6145 14.5813C25.5149 14.4249 25.4652 14.2329 25.4652 14.0053C25.4652 13.2089 26.1407 12.8107 27.4918 12.8107C29.1416 12.8107 30.4358 13.2729 31.3745 14.1973L32.3132 11.1467C32.3132 11.1467 32.1852 11.0258 31.9292 10.784C30.7772 9.888 28.9852 9.44 26.5532 9.44C25.1309 9.44 23.8438 9.64622 22.6918 10.0587C21.5398 10.4711 20.5941 11.1396 19.8545 12.064C19.1149 12.9742 18.7452 14.0693 18.7452 15.3493C18.7452 18.4782 20.4021 20.5404 23.7158 21.536C24.9958 21.92 25.9203 22.2613 26.4892 22.56C27.0581 22.8444 27.3425 23.1716 27.3425 23.5413C27.3425 23.9253 27.1789 24.224 26.8518 24.4373C26.5389 24.6507 25.9558 24.7573 25.1025 24.7573C23.9221 24.7573 22.7629 24.5867 21.6252 24.2453C20.5016 23.904 19.6981 23.4987 19.2145 23.0293L18.6598 26.464C19.0438 26.8907 19.9185 27.3316 21.2838 27.7867C22.6492 28.2276 24.0003 28.448 25.3372 28.448ZM45.846 25.1627L46.5073 28H52.4167V9.86667H44.2887V12.32L45.4407 13.088V23.1147C45.398 23.1431 45.334 23.1929 45.2487 23.264C45.1776 23.3209 45.1207 23.3636 45.078 23.392C45.0496 23.4204 44.9998 23.4631 44.9287 23.52C44.8576 23.5627 44.8007 23.5982 44.758 23.6267C44.7153 23.6551 44.6584 23.6907 44.5873 23.7333C44.5162 23.7618 44.4522 23.7831 44.3953 23.7973C44.3527 23.8116 44.2958 23.8329 44.2247 23.8613C44.1536 23.8756 44.0824 23.8898 44.0113 23.904C43.9402 23.904 43.862 23.904 43.7767 23.904C43.1793 23.904 42.7669 23.7547 42.5393 23.456C42.3118 23.1431 42.2051 22.6667 42.2193 22.0267V9.86667H34.4753V12.32L35.222 13.088V20.6827C35.222 23.4702 35.6487 25.4613 36.502 26.656C37.3696 27.8507 38.806 28.448 40.8113 28.448C41.4513 28.448 42.0842 28.3058 42.71 28.0213C43.3358 27.7511 43.862 27.424 44.2887 27.04C44.7153 26.6418 45.0567 26.2791 45.3127 25.952C45.5829 25.6249 45.7607 25.3618 45.846 25.1627ZM62.2422 28V15.5627C62.2706 15.5342 62.3204 15.4916 62.3915 15.4347C62.4768 15.3636 62.5337 15.3138 62.5622 15.2853C62.6048 15.2569 62.6617 15.2142 62.7328 15.1573C62.8182 15.0862 62.8822 15.0364 62.9248 15.008C62.9675 14.9796 63.0244 14.944 63.0955 14.9013C63.1666 14.8444 63.2306 14.8089 63.2875 14.7947C63.3444 14.7662 63.4084 14.7378 63.4795 14.7093C63.5648 14.6667 63.6359 14.6382 63.6928 14.624C63.7639 14.6098 63.8351 14.5956 63.9062 14.5813C63.9915 14.5671 64.0768 14.56 64.1622 14.56C65.3426 14.56 65.9115 15.2284 65.8688 16.5653V28H72.9088V17.184C72.9088 17.0844 72.9159 16.9493 72.9302 16.7787C72.9302 16.608 72.9302 16.48 72.9302 16.3947C72.9302 13.8916 72.5248 12.1067 71.7142 11.04C70.9177 9.97333 69.5453 9.44 67.5968 9.44C67.0422 9.44 66.4733 9.55378 65.8902 9.78133C65.3213 9.99467 64.8306 10.2578 64.4182 10.5707C64.0057 10.8693 63.6288 11.1751 63.2875 11.488C62.9604 11.8009 62.7115 12.0711 62.5408 12.2987L62.2848 12.6187V9.86667H58.6582L54.0715 11.1253V13.408L55.3515 14.1973V28H62.2422ZM84.8175 26.1013L85.5002 28H91.3455L90.7482 26.336V17.6533C90.7482 16.0889 90.6273 14.8018 90.3855 13.792C90.1437 12.768 89.7313 11.9289 89.1482 11.2747C88.5793 10.6062 87.8326 10.1369 86.9082 9.86667C85.9837 9.58222 84.8104 9.44 83.3882 9.44C81.7811 9.44 80.2024 9.68178 78.6522 10.1653C77.1019 10.6347 75.8433 11.1822 74.8762 11.808L76.2415 14.7093C76.7819 14.4249 77.5286 14.1831 78.4815 13.984C79.4344 13.7707 80.3517 13.664 81.2335 13.664C82.2575 13.664 82.9971 13.8418 83.4522 14.1973C83.9215 14.5529 84.1562 15.1644 84.1562 16.032V16.416C83.6726 16.416 83.1677 16.4373 82.6415 16.48C82.1153 16.5227 81.5179 16.608 80.8495 16.736C80.1811 16.864 79.5411 17.0276 78.9295 17.2267C78.3322 17.4116 77.7348 17.6747 77.1375 18.016C76.5402 18.3431 76.0282 18.72 75.6015 19.1467C75.1748 19.5733 74.8264 20.0996 74.5562 20.7253C74.2859 21.3369 74.1508 22.0124 74.1508 22.752C74.1508 26.5493 76.0708 28.448 79.9108 28.448C80.4797 28.448 81.0344 28.3627 81.5748 28.192C82.1153 28.0356 82.5704 27.8436 82.9402 27.616C83.3242 27.3884 83.6584 27.1609 83.9428 26.9333C84.2415 26.7058 84.4619 26.5067 84.6042 26.336L84.8175 26.1013ZM83.1322 24.6933C81.9233 24.6933 81.3188 23.8044 81.3188 22.0267C81.3188 21.0311 81.5748 20.2987 82.0868 19.8293C82.5988 19.3458 83.2886 19.104 84.1562 19.104V24.224C84.1562 24.224 84.1135 24.2667 84.0282 24.352C83.9428 24.4231 83.8148 24.5013 83.6442 24.5867C83.4877 24.6578 83.3171 24.6933 83.1322 24.6933ZM100.367 28V15.5627C100.396 15.5342 100.445 15.4916 100.516 15.4347C100.602 15.3636 100.659 15.3138 100.687 15.2853C100.73 15.2569 100.787 15.2142 100.858 15.1573C100.943 15.0862 101.007 15.0364 101.05 15.008C101.093 14.9796 101.149 14.944 101.22 14.9013C101.292 14.8444 101.356 14.8089 101.412 14.7947C101.469 14.7662 101.533 14.7378 101.604 14.7093C101.69 14.6667 101.761 14.6382 101.818 14.624C101.889 14.6098 101.96 14.5956 102.031 14.5813C102.116 14.5671 102.202 14.56 102.287 14.56C103.468 14.56 104.037 15.2284 103.994 16.5653V28H111.034V17.8027C111.034 17.0062 111.012 16.2667 110.97 15.584C111.681 14.9013 112.243 14.56 112.655 14.56C113.267 14.56 113.722 14.7378 114.021 15.0933C114.319 15.4489 114.469 15.9396 114.469 16.5653V28H121.402V17.184C121.402 15.1644 121.231 13.6 120.89 12.4907C120.548 11.3813 120.001 10.5991 119.247 10.144C118.508 9.67467 117.469 9.44 116.132 9.44C114.924 9.44 113.814 9.80978 112.805 10.5493C111.809 11.2747 111.069 12.0569 110.586 12.896C110.273 11.6729 109.74 10.7911 108.986 10.2507C108.232 9.71022 107.144 9.44 105.722 9.44C105.167 9.44 104.605 9.55378 104.036 9.78133C103.482 9.99467 103.005 10.2364 102.607 10.5067C102.223 10.7769 101.846 11.0898 101.476 11.4453C101.107 11.8009 100.851 12.064 100.708 12.2347C100.58 12.3911 100.481 12.5191 100.41 12.6187V9.86667H96.7832L92.1965 11.1253V13.408L93.4765 14.1973V28H100.367ZM124.102 28H130.971V9.86667H127.408L122.822 11.1253V13.408L124.102 14.1973V28ZM127.195 7.904H128.005L131.653 4.384V3.63733L128.005 0.138666H127.195L123.696 3.63733V4.384L127.195 7.904Z" fill="white"/>
</svg>
